<svg xmlns="http://www.w3.org/2000/svg" width="186.733" height="274.481" viewBox="0 0 186.733 274.481"><defs><style>.a{opacity:0.19;}.b,.c{fill:#afafaf;}.b{mix-blend-mode:darken;isolation:isolate;}.c,.e{fill-rule:evenodd;}.d,.e{fill:#002c4b;}</style></defs><g class="a" transform="translate(5 5)"><path class="b" d="M45.433,170.882H136.3A22.751,22.751,0,0,0,159.017,148.1V125.314H22.717V148.1A22.751,22.751,0,0,0,45.433,170.882Zm100.1,21.839a22.786,22.786,0,0,1-19.1,35.122H55.315a22.786,22.786,0,0,1-19.1-35.122A45.548,45.548,0,0,1,0,148.1V45.569A45.5,45.5,0,0,1,45.433,0H136.3a45.5,45.5,0,0,1,45.433,45.569V148.1a45.547,45.547,0,0,1-36.2,44.622Zm13.482-90.192V45.569A22.751,22.751,0,0,0,136.3,22.784H45.433A22.751,22.751,0,0,0,22.717,45.569v56.961ZM136.3,34.176a11.375,11.375,0,0,1,11.358,11.392V79.745a11.358,11.358,0,1,1-22.717,0V45.569A11.375,11.375,0,0,1,136.3,34.176ZM45.433,159.49A11.392,11.392,0,1,1,56.792,148.1,11.375,11.375,0,0,1,45.433,159.49Zm90.867,0A11.392,11.392,0,1,1,147.658,148.1,11.375,11.375,0,0,1,136.3,159.49Zm-81,45.569H126.43l-7.565-11.392h-56L55.3,205.059Z" transform="translate(0 41.638)"/><path class="c" d="M14.328,10A11.362,11.362,0,1,0,25.656,21.362,11.345,11.345,0,0,0,14.328,10Zm39.648,0A11.362,11.362,0,1,0,65.3,21.362,11.345,11.345,0,0,0,53.976,10Zm39.648,0a11.362,11.362,0,1,0,11.328,11.362A11.345,11.345,0,0,0,93.624,10Z" transform="translate(36.711 -10)"/></g><path class="d" d="M45.433,170.882H136.3A22.751,22.751,0,0,0,159.017,148.1V125.314H22.717V148.1A22.751,22.751,0,0,0,45.433,170.882Zm100.1,21.839a22.786,22.786,0,0,1-19.1,35.122H55.315a22.786,22.786,0,0,1-19.1-35.122A45.548,45.548,0,0,1,0,148.1V45.569A45.5,45.5,0,0,1,45.433,0H136.3a45.5,45.5,0,0,1,45.433,45.569V148.1a45.547,45.547,0,0,1-36.2,44.622Zm13.482-90.192V45.569A22.751,22.751,0,0,0,136.3,22.784H45.433A22.751,22.751,0,0,0,22.717,45.569v56.961ZM136.3,34.176a11.375,11.375,0,0,1,11.358,11.392V79.745a11.358,11.358,0,1,1-22.717,0V45.569A11.375,11.375,0,0,1,136.3,34.176ZM45.433,159.49A11.392,11.392,0,1,1,56.792,148.1,11.375,11.375,0,0,1,45.433,159.49Zm90.867,0A11.392,11.392,0,1,1,147.658,148.1,11.375,11.375,0,0,1,136.3,159.49Zm-81,45.569H126.43l-7.565-11.392h-56L55.3,205.059Z" transform="translate(0 41.638)"/><path class="e" d="M14.328,10A11.362,11.362,0,1,0,25.656,21.362,11.345,11.345,0,0,0,14.328,10Zm39.648,0A11.362,11.362,0,1,0,65.3,21.362,11.345,11.345,0,0,0,53.976,10Zm39.648,0a11.362,11.362,0,1,0,11.328,11.362A11.345,11.345,0,0,0,93.624,10Z" transform="translate(36.711 -10)"/></svg>