<svg xmlns="http://www.w3.org/2000/svg" width="75.599" height="67" viewBox="0 0 75.599 67"><defs><style>.a,.f,.g{fill:#002c4b;}.b{fill:#ffd94c;}.c{opacity:0.19;}.d,.e{fill:#afafaf;}.d{mix-blend-mode:darken;isolation:isolate;}.e,.g{fill-rule:evenodd;}.h,.i{stroke:none;}.i{fill:#002c4b;}</style></defs><g class="a" transform="translate(-7.701)"><path class="h" d="M 56.20018005371094 52 L 34.79977798461914 52 L 24.11013603210449 33.5 L 34.79981231689453 15 L 56.20016860961914 15 L 66.88981628417969 33.50000762939453 L 56.20018005371094 52 Z"/><path class="i" d="M 43.45653915405273 30 L 41.43416595458984 33.50000762939453 L 43.45652770996094 37 L 47.54340744018555 37 L 49.56578063964844 33.49999237060547 L 47.54341888427734 30 L 43.45653915405273 30 M 29.57526397705078 0 L 61.4246826171875 0 C 63.54817962646484 0 65.51010131835938 1.130416870117188 66.56993103027344 2.964668273925781 L 82.50692749023438 30.54595947265625 C 83.56351470947266 32.3745002746582 83.56351470947266 34.6254997253418 82.50692749023438 36.45404052734375 L 66.56993103027344 64.03533172607422 C 65.51010131835938 65.86958312988281 63.54817962646484 67 61.4246826171875 67 L 29.57526397705078 67 C 27.45172500610352 67 25.48984527587891 65.86958312988281 24.43001556396484 64.03533172607422 L 8.493011474609375 36.45404052734375 C 7.436431884765625 34.6254997253418 7.436431884765625 32.3745002746582 8.493011474609375 30.54595947265625 L 24.43001556396484 2.964668273925781 C 25.48989105224609 1.130416870117188 27.45176315307617 0 29.57526397705078 0 Z"/></g><g class="a" transform="translate(-7.701)"><path class="h" d="M 56.20018005371094 52 L 34.79977798461914 52 L 24.11013603210449 33.5 L 34.79981231689453 15 L 56.20016860961914 15 L 66.88981628417969 33.50000762939453 L 56.20018005371094 52 Z"/><path class="i" d="M 43.45653915405273 30 L 41.43416595458984 33.50000762939453 L 43.45652770996094 37 L 47.54340744018555 37 L 49.56578063964844 33.49999237060547 L 47.54341888427734 30 L 43.45653915405273 30 M 29.57526397705078 0 L 61.4246826171875 0 C 63.54817962646484 0 65.51010131835938 1.130416870117188 66.56993103027344 2.964668273925781 L 82.50692749023438 30.54595947265625 C 83.56351470947266 32.3745002746582 83.56351470947266 34.6254997253418 82.50692749023438 36.45404052734375 L 66.56993103027344 64.03533172607422 C 65.51010131835938 65.86958312988281 63.54817962646484 67 61.4246826171875 67 L 29.57526397705078 67 C 27.45172500610352 67 25.48984527587891 65.86958312988281 24.43001556396484 64.03533172607422 L 8.493011474609375 36.45404052734375 C 7.436431884765625 34.6254997253418 7.436431884765625 32.3745002746582 8.493011474609375 30.54595947265625 L 24.43001556396484 2.964668273925781 C 25.48989105224609 1.130416870117188 27.45176315307617 0 29.57526397705078 0 Z"/></g><g transform="translate(4.524 4.103)"><path class="b" d="M55.193,0a5.256,5.256,0,0,1,4.548,2.61L73.83,26.89a5.177,5.177,0,0,1,0,5.2L59.741,56.37a5.256,5.256,0,0,1-4.548,2.61H27.038a5.256,5.256,0,0,1-4.548-2.61L8.4,32.091a5.177,5.177,0,0,1,0-5.2L22.49,2.61A5.256,5.256,0,0,1,27.038,0Z" transform="translate(-7.701 0)"/><path class="b" d="M55.193,0a5.256,5.256,0,0,1,4.548,2.61L73.83,26.89a5.177,5.177,0,0,1,0,5.2L59.741,56.37a5.256,5.256,0,0,1-4.548,2.61H27.038a5.256,5.256,0,0,1-4.548-2.61L8.4,32.091a5.177,5.177,0,0,1,0-5.2L22.49,2.61A5.256,5.256,0,0,1,27.038,0Z" transform="translate(-7.701 0)"/></g><g transform="translate(25.781 16.022)"><g class="c" transform="translate(0.637 0.634)"><path class="d" d="M5.786,21.684H17.359a2.892,2.892,0,0,0,2.893-2.891V15.9H2.893v2.891A2.892,2.892,0,0,0,5.786,21.684Zm12.749,2.771A2.891,2.891,0,0,1,16.1,28.912H7.045a2.891,2.891,0,0,1-2.433-4.457A5.785,5.785,0,0,1,0,18.793V5.782A5.784,5.784,0,0,1,5.786,0H17.359a5.784,5.784,0,0,1,5.786,5.782v13.01a5.785,5.785,0,0,1-4.61,5.662ZM20.252,13.01V5.782a2.892,2.892,0,0,0-2.893-2.891H5.786A2.892,2.892,0,0,0,2.893,5.782V13.01ZM17.359,4.337a1.446,1.446,0,0,1,1.447,1.446v4.337a1.447,1.447,0,0,1-2.893,0V5.782A1.446,1.446,0,0,1,17.359,4.337ZM5.786,20.238a1.446,1.446,0,1,1,1.447-1.446A1.446,1.446,0,0,1,5.786,20.238Zm11.572,0a1.446,1.446,0,1,1,1.447-1.446A1.446,1.446,0,0,1,17.359,20.238ZM7.043,26.021H16.1l-.963-1.446H8.007l-.963,1.446Z" transform="translate(0 5.284)"/><path class="e" d="M4.443,10a1.442,1.442,0,1,0,1.443,1.442A1.442,1.442,0,0,0,4.443,10Zm5.049,0a1.442,1.442,0,1,0,1.443,1.442A1.442,1.442,0,0,0,9.492,10Zm5.049,0a1.442,1.442,0,1,0,1.443,1.442A1.442,1.442,0,0,0,14.542,10Z" transform="translate(2.058 -10)"/></g><path class="f" d="M5.786,21.684H17.359a2.892,2.892,0,0,0,2.893-2.891V15.9H2.893v2.891A2.892,2.892,0,0,0,5.786,21.684Zm12.749,2.771A2.891,2.891,0,0,1,16.1,28.912H7.045a2.891,2.891,0,0,1-2.433-4.457A5.785,5.785,0,0,1,0,18.793V5.782A5.784,5.784,0,0,1,5.786,0H17.359a5.784,5.784,0,0,1,5.786,5.782v13.01a5.785,5.785,0,0,1-4.61,5.662ZM20.252,13.01V5.782a2.892,2.892,0,0,0-2.893-2.891H5.786A2.892,2.892,0,0,0,2.893,5.782V13.01ZM17.359,4.337a1.446,1.446,0,0,1,1.447,1.446v4.337a1.447,1.447,0,0,1-2.893,0V5.782A1.446,1.446,0,0,1,17.359,4.337ZM5.786,20.238a1.446,1.446,0,1,1,1.447-1.446A1.446,1.446,0,0,1,5.786,20.238Zm11.572,0a1.446,1.446,0,1,1,1.447-1.446A1.446,1.446,0,0,1,17.359,20.238ZM7.043,26.021H16.1l-.963-1.446H8.007l-.963,1.446Z" transform="translate(0 5.284)"/><path class="g" d="M4.443,10a1.442,1.442,0,1,0,1.443,1.442A1.442,1.442,0,0,0,4.443,10Zm5.049,0a1.442,1.442,0,1,0,1.443,1.442A1.442,1.442,0,0,0,9.492,10Zm5.049,0a1.442,1.442,0,1,0,1.443,1.442A1.442,1.442,0,0,0,14.542,10Z" transform="translate(2.058 -10)"/></g></svg>