<svg xmlns="http://www.w3.org/2000/svg" width="228.687" height="45" viewBox="0 0 228.687 45"><defs><style>.a,.f,.g{fill:#002c4b;}.b{fill:#ffd94c;}.c{opacity:0.19;}.d,.e{fill:#afafaf;}.d{mix-blend-mode:darken;isolation:isolate;}.e,.g{fill-rule:evenodd;}.h,.i{stroke:none;}.i{fill:#002c4b;}</style></defs><g class="a" transform="translate(-7.701)"><path class="h" d="M 38.12481689453125 30 L 28.87512016296387 30 L 24.4712028503418 22.5000057220459 L 28.87512969970703 15 L 38.12482833862305 15 L 42.52874374389648 22.4999942779541 L 38.12481689453125 30 Z"/><path class="i" d="M 22.63082885742188 0 L 44.36911773681641 0 C 45.81850814819336 0 47.15754699707031 0.7592506408691406 47.88093566894531 1.991180419921875 L 58.75847244262695 20.51592826843262 C 59.47965240478516 21.74407196044922 59.47965240478516 23.25592803955078 58.75847244262695 24.48407173156738 L 47.88093566894531 43.00881958007813 C 47.15754699707031 44.24074935913086 45.81850814819336 45 44.36911773681641 45 L 22.63082885742188 45 C 21.18143844604492 45 19.84236526489258 44.24074935913086 19.1190071105957 43.00881958007813 L 8.241436004638672 24.48407173156738 C 7.520294189453125 23.25592803955078 7.520294189453125 21.74407196044922 8.241436004638672 20.51592826843262 L 19.1190071105957 1.991180419921875 C 19.84240341186523 0.7592506408691406 21.18143844604492 0 22.63082885742188 0 Z"/></g><g class="a" transform="translate(-7.701)"><path class="h" d="M 38.12481689453125 30 L 28.87512016296387 30 L 24.4712028503418 22.5000057220459 L 28.87512969970703 15 L 38.12482833862305 15 L 42.52874374389648 22.4999942779541 L 38.12481689453125 30 Z"/><path class="i" d="M 22.63082885742188 0 L 44.36911773681641 0 C 45.81850814819336 0 47.15754699707031 0.7592506408691406 47.88093566894531 1.991180419921875 L 58.75847244262695 20.51592826843262 C 59.47965240478516 21.74407196044922 59.47965240478516 23.25592803955078 58.75847244262695 24.48407173156738 L 47.88093566894531 43.00881958007813 C 47.15754699707031 44.24074935913086 45.81850814819336 45 44.36911773681641 45 L 22.63082885742188 45 C 21.18143844604492 45 19.84236526489258 44.24074935913086 19.1190071105957 43.00881958007813 L 8.241436004638672 24.48407173156738 C 7.520294189453125 23.25592803955078 7.520294189453125 21.74407196044922 8.241436004638672 20.51592826843262 L 19.1190071105957 1.991180419921875 C 19.84240341186523 0.7592506408691406 21.18143844604492 0 22.63082885742188 0 Z"/></g><g transform="translate(3.088 2.756)"><path class="b" d="M40.116,0a3.6,3.6,0,0,1,3.1,1.753L52.836,18.06a3.429,3.429,0,0,1,0,3.493L43.22,37.861a3.6,3.6,0,0,1-3.1,1.753H20.9a3.6,3.6,0,0,1-3.1-1.753L8.179,21.553a3.429,3.429,0,0,1,0-3.493L17.795,1.753A3.6,3.6,0,0,1,20.9,0Z" transform="translate(-7.701 0)"/><path class="b" d="M40.116,0a3.6,3.6,0,0,1,3.1,1.753L52.836,18.06a3.429,3.429,0,0,1,0,3.493L43.22,37.861a3.6,3.6,0,0,1-3.1,1.753H20.9a3.6,3.6,0,0,1-3.1-1.753L8.179,21.553a3.429,3.429,0,0,1,0-3.493L17.795,1.753A3.6,3.6,0,0,1,20.9,0Z" transform="translate(-7.701 0)"/></g><g transform="translate(17.597 10.761)"><g class="c" transform="translate(0.435 0.426)"><path class="d" d="M3.949,14.564h7.9a1.958,1.958,0,0,0,1.975-1.942V10.68H1.975v1.942A1.958,1.958,0,0,0,3.949,14.564Zm8.7,1.861a1.914,1.914,0,0,1,.073,1.982,1.98,1.98,0,0,1-1.734,1.012H4.808a1.98,1.98,0,0,1-1.734-1.012,1.914,1.914,0,0,1,.073-1.982A3.9,3.9,0,0,1,0,12.622V3.884A3.917,3.917,0,0,1,3.949,0h7.9A3.917,3.917,0,0,1,15.8,3.884v8.738a3.9,3.9,0,0,1-3.146,3.8Zm1.172-7.687V3.884a1.958,1.958,0,0,0-1.975-1.942h-7.9A1.958,1.958,0,0,0,1.975,3.884V8.738ZM11.848,2.913a.979.979,0,0,1,.987.971V6.8a.987.987,0,0,1-1.975,0V3.884A.979.979,0,0,1,11.848,2.913Zm-7.9,10.68a.971.971,0,1,1,.987-.971A.979.979,0,0,1,3.949,13.593Zm7.9,0a.971.971,0,1,1,.987-.971A.979.979,0,0,1,11.848,13.593ZM4.807,17.477H10.99l-.658-.971H5.465l-.658.971Z" transform="translate(0 3.549)"/><path class="e" d="M3.985,10a.968.968,0,1,0,.985.968A.977.977,0,0,0,3.985,10Zm3.446,0a.968.968,0,1,0,.985.968A.977.977,0,0,0,7.431,10Zm3.446,0a.968.968,0,1,0,.985.968A.977.977,0,0,0,10.878,10Z" transform="translate(0.452 -10)"/></g><path class="f" d="M3.949,14.564h7.9a1.958,1.958,0,0,0,1.975-1.942V10.68H1.975v1.942A1.958,1.958,0,0,0,3.949,14.564Zm8.7,1.861a1.914,1.914,0,0,1,.073,1.982,1.98,1.98,0,0,1-1.734,1.012H4.808a1.98,1.98,0,0,1-1.734-1.012,1.914,1.914,0,0,1,.073-1.982A3.9,3.9,0,0,1,0,12.622V3.884A3.917,3.917,0,0,1,3.949,0h7.9A3.917,3.917,0,0,1,15.8,3.884v8.738a3.9,3.9,0,0,1-3.146,3.8Zm1.172-7.687V3.884a1.958,1.958,0,0,0-1.975-1.942h-7.9A1.958,1.958,0,0,0,1.975,3.884V8.738ZM11.848,2.913a.979.979,0,0,1,.987.971V6.8a.987.987,0,0,1-1.975,0V3.884A.979.979,0,0,1,11.848,2.913Zm-7.9,10.68a.971.971,0,1,1,.987-.971A.979.979,0,0,1,3.949,13.593Zm7.9,0a.971.971,0,1,1,.987-.971A.979.979,0,0,1,11.848,13.593ZM4.807,17.477H10.99l-.658-.971H5.465l-.658.971Z" transform="translate(0 3.549)"/><path class="g" d="M3.985,10a.968.968,0,1,0,.985.968A.977.977,0,0,0,3.985,10Zm3.446,0a.968.968,0,1,0,.985.968A.977.977,0,0,0,7.431,10Zm3.446,0a.968.968,0,1,0,.985.968A.977.977,0,0,0,10.878,10Z" transform="translate(0.452 -10)"/></g><path class="f" d="M4.746-17.439v3.725H9.318a1.29,1.29,0,0,1,.921.349,1.181,1.181,0,0,1,.37.9,1.12,1.12,0,0,1-.37.825,1.269,1.269,0,0,1-.921.36H4.746v4.932a1.216,1.216,0,0,1-.392.921,1.3,1.3,0,0,1-.921.37,1.324,1.324,0,0,1-.963-.36,1.241,1.241,0,0,1-.37-.931V-18.582a1.25,1.25,0,0,1,.37-.921,1.25,1.25,0,0,1,.921-.37H10.27a1.29,1.29,0,0,1,.921.349,1.181,1.181,0,0,1,.37.9,1.12,1.12,0,0,1-.37.825,1.269,1.269,0,0,1-.921.36Zm14.731.847a1.619,1.619,0,0,1,1.069.36,1.073,1.073,0,0,1,.434.847,1.311,1.311,0,0,1-.339.984,1.117,1.117,0,0,1-.8.328,2.112,2.112,0,0,1-.72-.148q-.063-.021-.286-.085a1.727,1.727,0,0,0-.476-.063,1.881,1.881,0,0,0-1.058.339,2.471,2.471,0,0,0-.836,1.027,3.78,3.78,0,0,0-.328,1.64v5.016a1.269,1.269,0,0,1-.36.921,1.215,1.215,0,0,1-.91.37,1.215,1.215,0,0,1-.91-.37,1.269,1.269,0,0,1-.36-.921V-15.09a1.269,1.269,0,0,1,.36-.921,1.215,1.215,0,0,1,.91-.37,1.215,1.215,0,0,1,.91.37,1.269,1.269,0,0,1,.36.921v.275a3.207,3.207,0,0,1,1.4-1.323A4.3,4.3,0,0,1,19.477-16.593Zm13.715,5.884a6.049,6.049,0,0,1-.762,3.037,5.383,5.383,0,0,1-2.085,2.085,5.855,5.855,0,0,1-2.91.741,5.838,5.838,0,0,1-2.921-.741A5.4,5.4,0,0,1,22.44-7.671a6.049,6.049,0,0,1-.762-3.037,6.049,6.049,0,0,1,.762-3.037,5.48,5.48,0,0,1,2.074-2.1,5.773,5.773,0,0,1,2.921-.751,5.79,5.79,0,0,1,2.91.751,5.458,5.458,0,0,1,2.085,2.1A6.049,6.049,0,0,1,33.193-10.709Zm-2.54,0a3.879,3.879,0,0,0-.434-1.852,3.193,3.193,0,0,0-1.164-1.259,3.054,3.054,0,0,0-1.619-.444,3.054,3.054,0,0,0-1.619.444,3.193,3.193,0,0,0-1.164,1.259,3.879,3.879,0,0,0-.434,1.852,3.817,3.817,0,0,0,.434,1.841,3.21,3.21,0,0,0,1.164,1.249,3.054,3.054,0,0,0,1.619.444,3.054,3.054,0,0,0,1.619-.444,3.21,3.21,0,0,0,1.164-1.249A3.817,3.817,0,0,0,30.653-10.709Zm10.71-5.884a3.277,3.277,0,0,1,2.984,1.281,6.509,6.509,0,0,1,.825,3.545v5.418a1.269,1.269,0,0,1-.36.921,1.215,1.215,0,0,1-.91.37,1.215,1.215,0,0,1-.91-.37,1.269,1.269,0,0,1-.36-.921v-5.418a3.049,3.049,0,0,0-.487-1.831,1.935,1.935,0,0,0-1.672-.667,2.581,2.581,0,0,0-1.926.709,2.444,2.444,0,0,0-.7,1.789v5.418a1.269,1.269,0,0,1-.36.921,1.215,1.215,0,0,1-.91.37,1.215,1.215,0,0,1-.91-.37,1.269,1.269,0,0,1-.36-.921V-15.09a1.269,1.269,0,0,1,.36-.921,1.215,1.215,0,0,1,.91-.37,1.215,1.215,0,0,1,.91.37,1.269,1.269,0,0,1,.36.921v.36a5.112,5.112,0,0,1,1.492-1.312A3.867,3.867,0,0,1,41.363-16.593ZM53.385-7.449a.7.7,0,0,1,.54.286,1.119,1.119,0,0,1,.243.751,1.131,1.131,0,0,1-.624.963,2.594,2.594,0,0,1-1.408.392,4.1,4.1,0,0,1-2.212-.561A2.616,2.616,0,0,1,49.025-8v-5.842h-.974a1.149,1.149,0,0,1-.847-.339,1.149,1.149,0,0,1-.339-.847,1.089,1.089,0,0,1,.339-.815,1.168,1.168,0,0,1,.847-.328h.974v-1.355a1.25,1.25,0,0,1,.37-.921,1.25,1.25,0,0,1,.921-.37,1.19,1.19,0,0,1,.889.37,1.269,1.269,0,0,1,.36.921v1.355h1.5a1.149,1.149,0,0,1,.847.339,1.149,1.149,0,0,1,.339.847,1.089,1.089,0,0,1-.339.815,1.168,1.168,0,0,1-.847.328h-1.5v5.736a.81.81,0,0,0,.233.646.939.939,0,0,0,.635.2,1.816,1.816,0,0,0,.466-.085A1.265,1.265,0,0,1,53.385-7.449Zm13.25-3.535a1.087,1.087,0,0,1-.4.825,1.346,1.346,0,0,1-.889.317H58.359a3.192,3.192,0,0,0,1.164,1.958,3.254,3.254,0,0,0,2.053.709,4.55,4.55,0,0,0,1.355-.159,3.528,3.528,0,0,0,.773-.339q.286-.18.392-.243a1.615,1.615,0,0,1,.72-.19,1.039,1.039,0,0,1,.762.317,1.015,1.015,0,0,1,.317.741A1.321,1.321,0,0,1,65.3-6.01a5.057,5.057,0,0,1-1.587.825,6.2,6.2,0,0,1-2.011.339,6.243,6.243,0,0,1-3.1-.741A5.171,5.171,0,0,1,56.56-7.629a5.956,5.956,0,0,1-.72-2.931,6.489,6.489,0,0,1,.762-3.2,5.41,5.41,0,0,1,2.011-2.106,5.2,5.2,0,0,1,2.667-.73,4.944,4.944,0,0,1,2.635.762,5.7,5.7,0,0,1,1.979,2.053A5.519,5.519,0,0,1,66.635-10.984ZM61.28-14.264a2.627,2.627,0,0,0-2.9,2.307h5.545v-.148a2.188,2.188,0,0,0-.868-1.524A2.747,2.747,0,0,0,61.28-14.264ZM74.8-16.593a3.277,3.277,0,0,1,2.984,1.281,6.509,6.509,0,0,1,.825,3.545v5.418a1.269,1.269,0,0,1-.36.921,1.215,1.215,0,0,1-.91.37,1.215,1.215,0,0,1-.91-.37,1.269,1.269,0,0,1-.36-.921v-5.418a3.049,3.049,0,0,0-.487-1.831,1.935,1.935,0,0,0-1.672-.667,2.581,2.581,0,0,0-1.926.709,2.444,2.444,0,0,0-.7,1.789v5.418a1.269,1.269,0,0,1-.36.921,1.215,1.215,0,0,1-.91.37,1.215,1.215,0,0,1-.91-.37,1.269,1.269,0,0,1-.36-.921V-15.09a1.269,1.269,0,0,1,.36-.921,1.215,1.215,0,0,1,.91-.37,1.215,1.215,0,0,1,.91.37,1.269,1.269,0,0,1,.36.921v.36a5.112,5.112,0,0,1,1.492-1.312A3.867,3.867,0,0,1,74.8-16.593ZM90.531-20.72a1.234,1.234,0,0,1,.91.36,1.26,1.26,0,0,1,.36.931v13.08a1.269,1.269,0,0,1-.36.921,1.215,1.215,0,0,1-.91.37,1.2,1.2,0,0,1-.9-.36,1.331,1.331,0,0,1-.37-.91A4.343,4.343,0,0,1,87.832-5.28a4.307,4.307,0,0,1-1.894.434A4.839,4.839,0,0,1,83.292-5.6a5.268,5.268,0,0,1-1.873-2.085,6.506,6.506,0,0,1-.688-3.027,6.655,6.655,0,0,1,.677-3.037,5.2,5.2,0,0,1,1.852-2.1,4.714,4.714,0,0,1,2.593-.751,4.9,4.9,0,0,1,1.9.37,5,5,0,0,1,1.5.942v-4.148a1.269,1.269,0,0,1,.36-.921A1.215,1.215,0,0,1,90.531-20.72ZM86.255-7.174A2.826,2.826,0,0,0,88.5-8.179a3.733,3.733,0,0,0,.868-2.529,3.774,3.774,0,0,0-.868-2.54,2.814,2.814,0,0,0-2.244-1.016,2.791,2.791,0,0,0-2.222,1.016,3.774,3.774,0,0,0-.868,2.54,3.762,3.762,0,0,0,.857,2.529A2.8,2.8,0,0,0,86.255-7.174Zm22.817-.317a1.25,1.25,0,0,1,.921.37,1.177,1.177,0,0,1,.37.857,1.123,1.123,0,0,1-.37.868,1.313,1.313,0,0,1-.921.339h-7.091a1.25,1.25,0,0,1-.921-.37,1.25,1.25,0,0,1-.37-.921V-18.582a1.25,1.25,0,0,1,.37-.921,1.25,1.25,0,0,1,.921-.37h7.091a1.29,1.29,0,0,1,.921.349,1.181,1.181,0,0,1,.37.9,1.106,1.106,0,0,1-.36.857,1.329,1.329,0,0,1-.931.328h-5.736v3.6h4.783a1.29,1.29,0,0,1,.921.349,1.181,1.181,0,0,1,.37.9,1.106,1.106,0,0,1-.36.857,1.329,1.329,0,0,1-.931.328h-4.783v3.916Zm9.567-9.1a3.277,3.277,0,0,1,2.984,1.281,6.509,6.509,0,0,1,.825,3.545v5.418a1.269,1.269,0,0,1-.36.921,1.215,1.215,0,0,1-.91.37,1.215,1.215,0,0,1-.91-.37,1.269,1.269,0,0,1-.36-.921v-5.418a3.049,3.049,0,0,0-.487-1.831,1.935,1.935,0,0,0-1.672-.667,2.581,2.581,0,0,0-1.926.709,2.444,2.444,0,0,0-.7,1.789v5.418a1.269,1.269,0,0,1-.36.921,1.215,1.215,0,0,1-.91.37,1.215,1.215,0,0,1-.91-.37,1.269,1.269,0,0,1-.36-.921V-15.09a1.269,1.269,0,0,1,.36-.921,1.215,1.215,0,0,1,.91-.37,1.215,1.215,0,0,1,.91.37,1.269,1.269,0,0,1,.36.921v.36a5.112,5.112,0,0,1,1.492-1.312A3.867,3.867,0,0,1,118.639-16.593Zm15.938,0a1.233,1.233,0,0,1,.91.36,1.26,1.26,0,0,1,.36.931v9.419a4.53,4.53,0,0,1-1.6,3.82A6.422,6.422,0,0,1,130.2-.824a9.94,9.94,0,0,1-1.746-.212,7.7,7.7,0,0,1-1.577-.423q-1.037-.444-1.037-1.228a1.087,1.087,0,0,1,.063-.339,1.312,1.312,0,0,1,.434-.709A1.051,1.051,0,0,1,127-3.978a1.263,1.263,0,0,1,.4.063q.085.021,1.048.392a4.918,4.918,0,0,0,1.746.37,3.674,3.674,0,0,0,2.339-.624,2.143,2.143,0,0,0,.773-1.767V-6.56A4.218,4.218,0,0,1,131.9-5.375a4.061,4.061,0,0,1-2.021.529,5.035,5.035,0,0,1-2.7-.751,5.263,5.263,0,0,1-1.916-2.085,6.425,6.425,0,0,1-.7-3.027,6.57,6.57,0,0,1,.688-3.037,5.224,5.224,0,0,1,1.884-2.1,4.892,4.892,0,0,1,2.656-.751,4.608,4.608,0,0,1,2.011.444,4.729,4.729,0,0,1,1.5,1.079V-15.3a1.269,1.269,0,0,1,.36-.921A1.215,1.215,0,0,1,134.577-16.593ZM130.2-7.174a2.968,2.968,0,0,0,2.318-1.005,3.652,3.652,0,0,0,.9-2.529,3.691,3.691,0,0,0-.9-2.54,2.954,2.954,0,0,0-2.318-1.016,2.922,2.922,0,0,0-2.307,1.016,3.718,3.718,0,0,0-.889,2.54,3.678,3.678,0,0,0,.889,2.529A2.936,2.936,0,0,0,130.2-7.174Zm10.795.825a1.269,1.269,0,0,1-.36.921,1.215,1.215,0,0,1-.91.37,1.215,1.215,0,0,1-.91-.37,1.269,1.269,0,0,1-.36-.921V-15.09a1.269,1.269,0,0,1,.36-.921,1.215,1.215,0,0,1,.91-.37,1.215,1.215,0,0,1,.91.37,1.269,1.269,0,0,1,.36.921ZM139.7-17.757a1.682,1.682,0,0,1-1.016-.233.994.994,0,0,1-.3-.825v-.4a.959.959,0,0,1,.317-.825,1.741,1.741,0,0,1,1.016-.233,1.728,1.728,0,0,1,1.037.233.994.994,0,0,1,.3.825v.4a.972.972,0,0,1-.307.836A1.848,1.848,0,0,1,139.7-17.757Zm9.948,1.164a3.277,3.277,0,0,1,2.984,1.281,6.509,6.509,0,0,1,.825,3.545v5.418a1.269,1.269,0,0,1-.36.921,1.215,1.215,0,0,1-.91.37,1.215,1.215,0,0,1-.91-.37,1.269,1.269,0,0,1-.36-.921v-5.418a3.049,3.049,0,0,0-.487-1.831,1.935,1.935,0,0,0-1.672-.667,2.581,2.581,0,0,0-1.926.709,2.444,2.444,0,0,0-.7,1.789v5.418a1.269,1.269,0,0,1-.36.921,1.215,1.215,0,0,1-.91.37,1.215,1.215,0,0,1-.91-.37,1.269,1.269,0,0,1-.36-.921V-15.09a1.269,1.269,0,0,1,.36-.921,1.215,1.215,0,0,1,.91-.37,1.215,1.215,0,0,1,.91.37,1.269,1.269,0,0,1,.36.921v.36a5.112,5.112,0,0,1,1.492-1.312A3.867,3.867,0,0,1,149.647-16.593Zm16.721,5.609a1.087,1.087,0,0,1-.4.825,1.346,1.346,0,0,1-.889.317h-6.985a3.192,3.192,0,0,0,1.164,1.958,3.255,3.255,0,0,0,2.053.709,4.55,4.55,0,0,0,1.355-.159,3.528,3.528,0,0,0,.773-.339q.286-.18.392-.243a1.615,1.615,0,0,1,.72-.19,1.039,1.039,0,0,1,.762.317,1.015,1.015,0,0,1,.317.741,1.321,1.321,0,0,1-.593,1.037,5.057,5.057,0,0,1-1.587.825,6.2,6.2,0,0,1-2.011.339,6.243,6.243,0,0,1-3.1-.741,5.171,5.171,0,0,1-2.042-2.043,5.956,5.956,0,0,1-.72-2.931,6.489,6.489,0,0,1,.762-3.2,5.41,5.41,0,0,1,2.011-2.106,5.2,5.2,0,0,1,2.667-.73,4.944,4.944,0,0,1,2.635.762,5.7,5.7,0,0,1,1.979,2.053A5.519,5.519,0,0,1,166.368-10.984Zm-5.355-3.281a2.627,2.627,0,0,0-2.9,2.307h5.545v-.148a2.188,2.188,0,0,0-.868-1.524A2.747,2.747,0,0,0,161.013-14.264Z" transform="translate(62.319 33.72)"/></svg>