<svg xmlns="http://www.w3.org/2000/svg" width="310.207" height="67" viewBox="0 0 310.207 67"><defs><style>.a,.f,.g{fill:#002c4b;}.b{fill:#ffd94c;}.c{opacity:0.19;}.d,.e{fill:#afafaf;}.d{mix-blend-mode:darken;isolation:isolate;}.e,.g{fill-rule:evenodd;}.h,.i{stroke:none;}.i{fill:#002c4b;}</style></defs><g class="a" transform="translate(-7.701)"><path class="h" d="M 56.20018005371094 52 L 34.79977798461914 52 L 24.11013603210449 33.5 L 34.79981231689453 15 L 56.20016860961914 15 L 66.88981628417969 33.50000762939453 L 56.20018005371094 52 Z"/><path class="i" d="M 43.45653915405273 30 L 41.43416595458984 33.50000762939453 L 43.45652770996094 37 L 47.54340744018555 37 L 49.56578063964844 33.49999237060547 L 47.54341888427734 30 L 43.45653915405273 30 M 29.57526397705078 0 L 61.4246826171875 0 C 63.54817962646484 0 65.51010131835938 1.130416870117188 66.56993103027344 2.964668273925781 L 82.50692749023438 30.54595947265625 C 83.56351470947266 32.3745002746582 83.56351470947266 34.6254997253418 82.50692749023438 36.45404052734375 L 66.56993103027344 64.03533172607422 C 65.51010131835938 65.86958312988281 63.54817962646484 67 61.4246826171875 67 L 29.57526397705078 67 C 27.45172500610352 67 25.48984527587891 65.86958312988281 24.43001556396484 64.03533172607422 L 8.493011474609375 36.45404052734375 C 7.436431884765625 34.6254997253418 7.436431884765625 32.3745002746582 8.493011474609375 30.54595947265625 L 24.43001556396484 2.964668273925781 C 25.48989105224609 1.130416870117188 27.45176315307617 0 29.57526397705078 0 Z"/></g><g class="a" transform="translate(-7.701)"><path class="h" d="M 56.20018005371094 52 L 34.79977798461914 52 L 24.11013603210449 33.5 L 34.79981231689453 15 L 56.20016860961914 15 L 66.88981628417969 33.50000762939453 L 56.20018005371094 52 Z"/><path class="i" d="M 43.45653915405273 30 L 41.43416595458984 33.50000762939453 L 43.45652770996094 37 L 47.54340744018555 37 L 49.56578063964844 33.49999237060547 L 47.54341888427734 30 L 43.45653915405273 30 M 29.57526397705078 0 L 61.4246826171875 0 C 63.54817962646484 0 65.51010131835938 1.130416870117188 66.56993103027344 2.964668273925781 L 82.50692749023438 30.54595947265625 C 83.56351470947266 32.3745002746582 83.56351470947266 34.6254997253418 82.50692749023438 36.45404052734375 L 66.56993103027344 64.03533172607422 C 65.51010131835938 65.86958312988281 63.54817962646484 67 61.4246826171875 67 L 29.57526397705078 67 C 27.45172500610352 67 25.48984527587891 65.86958312988281 24.43001556396484 64.03533172607422 L 8.493011474609375 36.45404052734375 C 7.436431884765625 34.6254997253418 7.436431884765625 32.3745002746582 8.493011474609375 30.54595947265625 L 24.43001556396484 2.964668273925781 C 25.48989105224609 1.130416870117188 27.45176315307617 0 29.57526397705078 0 Z"/></g><g transform="translate(4.524 4.103)"><path class="b" d="M55.193,0a5.256,5.256,0,0,1,4.548,2.61L73.83,26.89a5.177,5.177,0,0,1,0,5.2L59.741,56.37a5.256,5.256,0,0,1-4.548,2.61H27.038a5.256,5.256,0,0,1-4.548-2.61L8.4,32.091a5.177,5.177,0,0,1,0-5.2L22.49,2.61A5.256,5.256,0,0,1,27.038,0Z" transform="translate(-7.701 0)"/><path class="b" d="M55.193,0a5.256,5.256,0,0,1,4.548,2.61L73.83,26.89a5.177,5.177,0,0,1,0,5.2L59.741,56.37a5.256,5.256,0,0,1-4.548,2.61H27.038a5.256,5.256,0,0,1-4.548-2.61L8.4,32.091a5.177,5.177,0,0,1,0-5.2L22.49,2.61A5.256,5.256,0,0,1,27.038,0Z" transform="translate(-7.701 0)"/></g><g transform="translate(25.781 16.022)"><g class="c" transform="translate(0.637 0.634)"><path class="d" d="M5.786,21.684H17.359a2.892,2.892,0,0,0,2.893-2.891V15.9H2.893v2.891A2.892,2.892,0,0,0,5.786,21.684Zm12.749,2.771A2.891,2.891,0,0,1,16.1,28.912H7.045a2.891,2.891,0,0,1-2.433-4.457A5.785,5.785,0,0,1,0,18.793V5.782A5.784,5.784,0,0,1,5.786,0H17.359a5.784,5.784,0,0,1,5.786,5.782v13.01a5.785,5.785,0,0,1-4.61,5.662ZM20.252,13.01V5.782a2.892,2.892,0,0,0-2.893-2.891H5.786A2.892,2.892,0,0,0,2.893,5.782V13.01ZM17.359,4.337a1.446,1.446,0,0,1,1.447,1.446v4.337a1.447,1.447,0,0,1-2.893,0V5.782A1.446,1.446,0,0,1,17.359,4.337ZM5.786,20.238a1.446,1.446,0,1,1,1.447-1.446A1.446,1.446,0,0,1,5.786,20.238Zm11.572,0a1.446,1.446,0,1,1,1.447-1.446A1.446,1.446,0,0,1,17.359,20.238ZM7.043,26.021H16.1l-.963-1.446H8.007l-.963,1.446Z" transform="translate(0 5.284)"/><path class="e" d="M4.443,10a1.442,1.442,0,1,0,1.443,1.442A1.442,1.442,0,0,0,4.443,10Zm5.049,0a1.442,1.442,0,1,0,1.443,1.442A1.442,1.442,0,0,0,9.492,10Zm5.049,0a1.442,1.442,0,1,0,1.443,1.442A1.442,1.442,0,0,0,14.542,10Z" transform="translate(2.058 -10)"/></g><path class="f" d="M5.786,21.684H17.359a2.892,2.892,0,0,0,2.893-2.891V15.9H2.893v2.891A2.892,2.892,0,0,0,5.786,21.684Zm12.749,2.771A2.891,2.891,0,0,1,16.1,28.912H7.045a2.891,2.891,0,0,1-2.433-4.457A5.785,5.785,0,0,1,0,18.793V5.782A5.784,5.784,0,0,1,5.786,0H17.359a5.784,5.784,0,0,1,5.786,5.782v13.01a5.785,5.785,0,0,1-4.61,5.662ZM20.252,13.01V5.782a2.892,2.892,0,0,0-2.893-2.891H5.786A2.892,2.892,0,0,0,2.893,5.782V13.01ZM17.359,4.337a1.446,1.446,0,0,1,1.447,1.446v4.337a1.447,1.447,0,0,1-2.893,0V5.782A1.446,1.446,0,0,1,17.359,4.337ZM5.786,20.238a1.446,1.446,0,1,1,1.447-1.446A1.446,1.446,0,0,1,5.786,20.238Zm11.572,0a1.446,1.446,0,1,1,1.447-1.446A1.446,1.446,0,0,1,17.359,20.238ZM7.043,26.021H16.1l-.963-1.446H8.007l-.963,1.446Z" transform="translate(0 5.284)"/><path class="g" d="M4.443,10a1.442,1.442,0,1,0,1.443,1.442A1.442,1.442,0,0,0,4.443,10Zm5.049,0a1.442,1.442,0,1,0,1.443,1.442A1.442,1.442,0,0,0,9.492,10Zm5.049,0a1.442,1.442,0,1,0,1.443,1.442A1.442,1.442,0,0,0,14.542,10Z" transform="translate(2.058 -10)"/></g><path class="f" d="M5.6-16.38v4.928h6.048a1.707,1.707,0,0,1,1.218.462,1.562,1.562,0,0,1,.49,1.19,1.482,1.482,0,0,1-.49,1.092,1.679,1.679,0,0,1-1.218.476H5.6v6.524A1.608,1.608,0,0,1,5.082-.49,1.715,1.715,0,0,1,3.864,0,1.751,1.751,0,0,1,2.59-.476,1.642,1.642,0,0,1,2.1-1.708V-17.892a1.654,1.654,0,0,1,.49-1.218,1.654,1.654,0,0,1,1.218-.49h9.1a1.707,1.707,0,0,1,1.218.462,1.562,1.562,0,0,1,.49,1.19,1.482,1.482,0,0,1-.49,1.092,1.679,1.679,0,0,1-1.218.476Zm19.488,1.12a2.141,2.141,0,0,1,1.414.476,1.419,1.419,0,0,1,.574,1.12,1.735,1.735,0,0,1-.448,1.3,1.477,1.477,0,0,1-1.064.434,2.794,2.794,0,0,1-.952-.2q-.084-.028-.378-.112a2.284,2.284,0,0,0-.63-.084,2.488,2.488,0,0,0-1.4.448A3.269,3.269,0,0,0,21.1-10.514a5,5,0,0,0-.434,2.17v6.636A1.679,1.679,0,0,1,20.188-.49a1.607,1.607,0,0,1-1.2.49,1.607,1.607,0,0,1-1.2-.49A1.679,1.679,0,0,1,17.3-1.708V-13.272a1.679,1.679,0,0,1,.476-1.218,1.607,1.607,0,0,1,1.2-.49,1.607,1.607,0,0,1,1.2.49,1.679,1.679,0,0,1,.476,1.218v.364a4.242,4.242,0,0,1,1.848-1.75A5.682,5.682,0,0,1,25.088-15.26ZM43.232-7.476a8,8,0,0,1-1.008,4.018A7.121,7.121,0,0,1,39.466-.7a7.745,7.745,0,0,1-3.85.98A7.722,7.722,0,0,1,31.752-.7a7.149,7.149,0,0,1-2.744-2.758A8,8,0,0,1,28-7.476a8,8,0,0,1,1.008-4.018,7.25,7.25,0,0,1,2.744-2.772,7.637,7.637,0,0,1,3.864-.994,7.66,7.66,0,0,1,3.85.994,7.22,7.22,0,0,1,2.758,2.772A8,8,0,0,1,43.232-7.476Zm-3.36,0a5.132,5.132,0,0,0-.574-2.45,4.224,4.224,0,0,0-1.54-1.666,4.04,4.04,0,0,0-2.142-.588,4.04,4.04,0,0,0-2.142.588,4.224,4.224,0,0,0-1.54,1.666,5.132,5.132,0,0,0-.574,2.45,5.05,5.05,0,0,0,.574,2.436,4.247,4.247,0,0,0,1.54,1.652,4.04,4.04,0,0,0,2.142.588,4.04,4.04,0,0,0,2.142-.588A4.247,4.247,0,0,0,39.3-5.04,5.05,5.05,0,0,0,39.872-7.476ZM54.04-15.26q2.856,0,3.948,1.694a8.611,8.611,0,0,1,1.092,4.69v7.168A1.679,1.679,0,0,1,58.6-.49,1.607,1.607,0,0,1,57.4,0a1.607,1.607,0,0,1-1.2-.49,1.679,1.679,0,0,1-.476-1.218V-8.876a4.034,4.034,0,0,0-.644-2.422,2.559,2.559,0,0,0-2.212-.882,3.414,3.414,0,0,0-2.548.938,3.233,3.233,0,0,0-.924,2.366v7.168A1.679,1.679,0,0,1,48.916-.49a1.607,1.607,0,0,1-1.2.49,1.607,1.607,0,0,1-1.2-.49,1.679,1.679,0,0,1-.476-1.218V-13.272a1.679,1.679,0,0,1,.476-1.218,1.607,1.607,0,0,1,1.2-.49,1.607,1.607,0,0,1,1.2.49,1.679,1.679,0,0,1,.476,1.218v.476a6.763,6.763,0,0,1,1.974-1.736A5.115,5.115,0,0,1,54.04-15.26Zm15.9,12.1a.931.931,0,0,1,.714.378,1.48,1.48,0,0,1,.322.994,1.5,1.5,0,0,1-.826,1.274A3.432,3.432,0,0,1,68.292,0a5.428,5.428,0,0,1-2.926-.742q-1.19-.742-1.19-3.15V-11.62H62.888a1.52,1.52,0,0,1-1.12-.448,1.52,1.52,0,0,1-.448-1.12,1.44,1.44,0,0,1,.448-1.078,1.546,1.546,0,0,1,1.12-.434h1.288v-1.792a1.654,1.654,0,0,1,.49-1.218,1.654,1.654,0,0,1,1.218-.49,1.574,1.574,0,0,1,1.176.49,1.679,1.679,0,0,1,.476,1.218V-14.7h1.988a1.52,1.52,0,0,1,1.12.448,1.52,1.52,0,0,1,.448,1.12,1.44,1.44,0,0,1-.448,1.078,1.546,1.546,0,0,1-1.12.434H67.536v7.588a1.072,1.072,0,0,0,.308.854,1.242,1.242,0,0,0,.84.266,2.4,2.4,0,0,0,.616-.112A1.673,1.673,0,0,1,69.944-3.164ZM87.472-7.84a1.438,1.438,0,0,1-.532,1.092,1.781,1.781,0,0,1-1.176.42h-9.24a4.222,4.222,0,0,0,1.54,2.59A4.305,4.305,0,0,0,80.78-2.8a6.019,6.019,0,0,0,1.792-.21,4.667,4.667,0,0,0,1.022-.448q.378-.238.518-.322a2.136,2.136,0,0,1,.952-.252,1.375,1.375,0,0,1,1.008.42,1.343,1.343,0,0,1,.42.98,1.747,1.747,0,0,1-.784,1.372,6.69,6.69,0,0,1-2.1,1.092,8.2,8.2,0,0,1-2.66.448,8.259,8.259,0,0,1-4.1-.98,6.84,6.84,0,0,1-2.7-2.7,7.879,7.879,0,0,1-.952-3.878A8.585,8.585,0,0,1,74.2-11.508a7.157,7.157,0,0,1,2.66-2.786,6.875,6.875,0,0,1,3.528-.966,6.541,6.541,0,0,1,3.486,1.008,7.535,7.535,0,0,1,2.618,2.716A7.3,7.3,0,0,1,87.472-7.84Zm-7.084-4.34a3.476,3.476,0,0,0-3.836,3.052h7.336v-.2A2.9,2.9,0,0,0,82.74-11.34,3.634,3.634,0,0,0,80.388-12.18ZM98.28-15.26q2.856,0,3.948,1.694a8.611,8.611,0,0,1,1.092,4.69v7.168a1.679,1.679,0,0,1-.476,1.218,1.607,1.607,0,0,1-1.2.49,1.607,1.607,0,0,1-1.2-.49,1.679,1.679,0,0,1-.476-1.218V-8.876a4.034,4.034,0,0,0-.644-2.422A2.559,2.559,0,0,0,97.1-12.18a3.414,3.414,0,0,0-2.548.938,3.233,3.233,0,0,0-.924,2.366v7.168A1.679,1.679,0,0,1,93.156-.49a1.607,1.607,0,0,1-1.2.49,1.607,1.607,0,0,1-1.2-.49,1.679,1.679,0,0,1-.476-1.218V-13.272a1.679,1.679,0,0,1,.476-1.218,1.607,1.607,0,0,1,1.2-.49,1.607,1.607,0,0,1,1.2.49,1.679,1.679,0,0,1,.476,1.218v.476a6.763,6.763,0,0,1,1.974-1.736A5.116,5.116,0,0,1,98.28-15.26Zm20.8-5.46a1.632,1.632,0,0,1,1.2.476,1.667,1.667,0,0,1,.476,1.232v17.3a1.679,1.679,0,0,1-.476,1.218,1.607,1.607,0,0,1-1.2.49,1.585,1.585,0,0,1-1.19-.476,1.761,1.761,0,0,1-.49-1.2,5.746,5.746,0,0,1-1.89,1.386,5.7,5.7,0,0,1-2.506.574,6.4,6.4,0,0,1-3.5-.994,6.969,6.969,0,0,1-2.478-2.758,8.606,8.606,0,0,1-.91-4,8.8,8.8,0,0,1,.9-4.018,6.884,6.884,0,0,1,2.45-2.772,6.236,6.236,0,0,1,3.43-.994,6.486,6.486,0,0,1,2.52.49,6.618,6.618,0,0,1,1.988,1.246v-5.488a1.679,1.679,0,0,1,.476-1.218A1.607,1.607,0,0,1,119.084-20.72ZM113.428-2.8A3.739,3.739,0,0,0,116.4-4.13a4.938,4.938,0,0,0,1.148-3.346,4.992,4.992,0,0,0-1.148-3.36,3.722,3.722,0,0,0-2.968-1.344,3.693,3.693,0,0,0-2.94,1.344,4.992,4.992,0,0,0-1.148,3.36,4.977,4.977,0,0,0,1.134,3.346A3.7,3.7,0,0,0,113.428-2.8Zm30.184-.42a1.654,1.654,0,0,1,1.218.49,1.557,1.557,0,0,1,.49,1.134,1.486,1.486,0,0,1-.49,1.148A1.737,1.737,0,0,1,143.612,0h-9.38a1.654,1.654,0,0,1-1.218-.49,1.654,1.654,0,0,1-.49-1.218V-17.892a1.654,1.654,0,0,1,.49-1.218,1.654,1.654,0,0,1,1.218-.49h9.38a1.707,1.707,0,0,1,1.218.462,1.562,1.562,0,0,1,.49,1.19,1.463,1.463,0,0,1-.476,1.134,1.758,1.758,0,0,1-1.232.434h-7.588v4.76h6.328a1.707,1.707,0,0,1,1.218.462,1.562,1.562,0,0,1,.49,1.19,1.463,1.463,0,0,1-.476,1.134,1.758,1.758,0,0,1-1.232.434h-6.328v5.18Zm12.656-12.04q2.856,0,3.948,1.694a8.611,8.611,0,0,1,1.092,4.69v7.168a1.679,1.679,0,0,1-.476,1.218,1.607,1.607,0,0,1-1.2.49,1.607,1.607,0,0,1-1.2-.49,1.679,1.679,0,0,1-.476-1.218V-8.876A4.034,4.034,0,0,0,157.3-11.3a2.559,2.559,0,0,0-2.212-.882,3.414,3.414,0,0,0-2.548.938,3.233,3.233,0,0,0-.924,2.366v7.168a1.679,1.679,0,0,1-.476,1.218,1.607,1.607,0,0,1-1.2.49,1.607,1.607,0,0,1-1.2-.49,1.679,1.679,0,0,1-.476-1.218V-13.272a1.679,1.679,0,0,1,.476-1.218,1.607,1.607,0,0,1,1.2-.49,1.607,1.607,0,0,1,1.2.49,1.679,1.679,0,0,1,.476,1.218v.476a6.763,6.763,0,0,1,1.974-1.736A5.115,5.115,0,0,1,156.268-15.26Zm21.084,0a1.632,1.632,0,0,1,1.2.476,1.667,1.667,0,0,1,.476,1.232v12.46a5.993,5.993,0,0,1-2.114,5.054A8.5,8.5,0,0,1,171.556,5.6a13.15,13.15,0,0,1-2.31-.28,10.18,10.18,0,0,1-2.086-.56q-1.372-.588-1.372-1.624a1.439,1.439,0,0,1,.084-.448,1.736,1.736,0,0,1,.574-.938,1.39,1.39,0,0,1,.882-.322,1.671,1.671,0,0,1,.532.084q.112.028,1.386.518a6.507,6.507,0,0,0,2.31.49,4.86,4.86,0,0,0,3.094-.826,2.835,2.835,0,0,0,1.022-2.338V-1.988A5.58,5.58,0,0,1,173.81-.42a5.372,5.372,0,0,1-2.674.7,6.661,6.661,0,0,1-3.57-.994,6.962,6.962,0,0,1-2.534-2.758,8.5,8.5,0,0,1-.924-4,8.692,8.692,0,0,1,.91-4.018,6.911,6.911,0,0,1,2.492-2.772,6.471,6.471,0,0,1,3.514-.994,6.1,6.1,0,0,1,2.66.588,6.256,6.256,0,0,1,1.988,1.428v-.308a1.679,1.679,0,0,1,.476-1.218A1.607,1.607,0,0,1,177.352-15.26Zm-5.8,12.46a3.926,3.926,0,0,0,3.066-1.33,4.831,4.831,0,0,0,1.19-3.346,4.883,4.883,0,0,0-1.19-3.36,3.908,3.908,0,0,0-3.066-1.344,3.866,3.866,0,0,0-3.052,1.344,4.918,4.918,0,0,0-1.176,3.36A4.866,4.866,0,0,0,168.5-4.13,3.884,3.884,0,0,0,171.556-2.8Zm14.28,1.092A1.679,1.679,0,0,1,185.36-.49a1.607,1.607,0,0,1-1.2.49,1.607,1.607,0,0,1-1.2-.49,1.679,1.679,0,0,1-.476-1.218V-13.272a1.679,1.679,0,0,1,.476-1.218,1.607,1.607,0,0,1,1.2-.49,1.607,1.607,0,0,1,1.2.49,1.679,1.679,0,0,1,.476,1.218ZM184.128-16.8a2.225,2.225,0,0,1-1.344-.308,1.316,1.316,0,0,1-.392-1.092v-.532a1.269,1.269,0,0,1,.42-1.092,2.3,2.3,0,0,1,1.344-.308,2.285,2.285,0,0,1,1.372.308,1.316,1.316,0,0,1,.392,1.092v.532a1.286,1.286,0,0,1-.406,1.106A2.445,2.445,0,0,1,184.128-16.8Zm13.16,1.54q2.856,0,3.948,1.694a8.611,8.611,0,0,1,1.092,4.69v7.168a1.679,1.679,0,0,1-.476,1.218,1.607,1.607,0,0,1-1.2.49,1.607,1.607,0,0,1-1.2-.49,1.679,1.679,0,0,1-.476-1.218V-8.876a4.034,4.034,0,0,0-.644-2.422,2.559,2.559,0,0,0-2.212-.882,3.414,3.414,0,0,0-2.548.938,3.233,3.233,0,0,0-.924,2.366v7.168a1.679,1.679,0,0,1-.476,1.218,1.607,1.607,0,0,1-1.2.49,1.607,1.607,0,0,1-1.2-.49,1.679,1.679,0,0,1-.476-1.218V-13.272a1.679,1.679,0,0,1,.476-1.218,1.607,1.607,0,0,1,1.2-.49,1.607,1.607,0,0,1,1.2.49,1.679,1.679,0,0,1,.476,1.218v.476a6.763,6.763,0,0,1,1.974-1.736A5.115,5.115,0,0,1,197.288-15.26Zm22.12,7.42a1.438,1.438,0,0,1-.532,1.092,1.781,1.781,0,0,1-1.176.42h-9.24A4.222,4.222,0,0,0,210-3.738a4.305,4.305,0,0,0,2.716.938,6.019,6.019,0,0,0,1.792-.21,4.667,4.667,0,0,0,1.022-.448q.378-.238.518-.322A2.136,2.136,0,0,1,217-4.032a1.375,1.375,0,0,1,1.008.42,1.343,1.343,0,0,1,.42.98,1.747,1.747,0,0,1-.784,1.372,6.69,6.69,0,0,1-2.1,1.092,8.2,8.2,0,0,1-2.66.448,8.259,8.259,0,0,1-4.1-.98,6.84,6.84,0,0,1-2.7-2.7,7.879,7.879,0,0,1-.952-3.878,8.585,8.585,0,0,1,1.008-4.228,7.157,7.157,0,0,1,2.66-2.786,6.875,6.875,0,0,1,3.528-.966,6.541,6.541,0,0,1,3.486,1.008,7.535,7.535,0,0,1,2.618,2.716A7.3,7.3,0,0,1,219.408-7.84Zm-7.084-4.34a3.476,3.476,0,0,0-3.836,3.052h7.336v-.2a2.9,2.9,0,0,0-1.148-2.016A3.634,3.634,0,0,0,212.324-12.18Z" transform="translate(90.799 44)"/></svg>