<svg xmlns="http://www.w3.org/2000/svg" width="222.687" height="43" viewBox="0 0 222.687 43"><defs><style>.a,.f,.g{fill:#002c4b;}.b{fill:#ffd94c;}.c{opacity:0.19;}.d,.e{fill:#afafaf;}.d{mix-blend-mode:darken;isolation:isolate;}.e,.g{fill-rule:evenodd;}.h,.i{stroke:none;}.i{fill:#002c4b;}</style></defs><g class="a" transform="translate(-7.701)"><path class="h" d="M 36.63853073120117 28 L 28.36140632629395 28 L 24.52197265625 21.50000190734863 L 28.36140823364258 15 L 36.63853454589844 15 L 40.47796630859375 21.49999809265137 L 36.63853073120117 28 Z"/><path class="i" d="M 22.0521125793457 0 L 42.94782638549805 0 C 44.34104156494141 0 45.62818145751953 0.7254981994628906 46.32353973388672 1.902713775634766 L 56.77943420410156 19.60410690307617 C 57.47264862060547 20.77767944335938 57.47264862060547 22.22232055664063 56.77943420410156 23.39589309692383 L 46.32353973388672 41.09728622436523 C 45.62818145751953 42.27450180053711 44.34104156494141 43 42.94782638549805 43 L 22.0521125793457 43 C 20.65889739990234 43 19.37175369262695 42.27450180053711 18.67639923095703 41.09728622436523 L 8.220504760742188 23.39589309692383 C 7.527290344238281 22.22232055664063 7.527290344238281 20.77767944335938 8.220504760742188 19.60410690307617 L 18.67639923095703 1.902679443359375 C 19.37175369262695 0.7254981994628906 20.65889739990234 0 22.0521125793457 0 Z"/></g><g class="a" transform="translate(-7.701)"><path class="h" d="M 36.63853073120117 28 L 28.36140632629395 28 L 24.52197265625 21.50000190734863 L 28.36140823364258 15 L 36.63853454589844 15 L 40.47796630859375 21.49999809265137 L 36.63853073120117 28 Z"/><path class="i" d="M 22.0521125793457 0 L 42.94782638549805 0 C 44.34104156494141 0 45.62818145751953 0.7254981994628906 46.32353973388672 1.902713775634766 L 56.77943420410156 19.60410690307617 C 57.47264862060547 20.77767944335938 57.47264862060547 22.22232055664063 56.77943420410156 23.39589309692383 L 46.32353973388672 41.09728622436523 C 45.62818145751953 42.27450180053711 44.34104156494141 43 42.94782638549805 43 L 22.0521125793457 43 C 20.65889739990234 43 19.37175369262695 42.27450180053711 18.67639923095703 41.09728622436523 L 8.220504760742188 23.39589309692383 C 7.527290344238281 22.22232055664063 7.527290344238281 20.77767944335938 8.220504760742188 19.60410690307617 L 18.67639923095703 1.902679443359375 C 19.37175369262695 0.7254981994628906 20.65889739990234 0 22.0521125793457 0 Z"/></g><g transform="translate(2.968 2.633)"><path class="b" d="M38.859,0a3.464,3.464,0,0,1,2.984,1.675l9.243,15.583a3.26,3.26,0,0,1,0,3.338L41.844,36.178a3.464,3.464,0,0,1-2.984,1.675H20.387A3.464,3.464,0,0,1,17.4,36.178L8.16,20.6a3.26,3.26,0,0,1,0-3.338L17.4,1.675A3.464,3.464,0,0,1,20.387,0Z" transform="translate(-7.701 0)"/><path class="b" d="M38.859,0a3.464,3.464,0,0,1,2.984,1.675l9.243,15.583a3.26,3.26,0,0,1,0,3.338L41.844,36.178a3.464,3.464,0,0,1-2.984,1.675H20.387A3.464,3.464,0,0,1,17.4,36.178L8.16,20.6a3.26,3.26,0,0,1,0-3.338L17.4,1.675A3.464,3.464,0,0,1,20.387,0Z" transform="translate(-7.701 0)"/></g><g transform="translate(13.739 5.722)"><g class="c" transform="translate(0.418 0.407)"><path class="d" d="M5.384,19.7H16.151a2.66,2.66,0,0,0,2.692-2.627V14.447H2.692v2.627A2.66,2.66,0,0,0,5.384,19.7Zm11.862,2.518a2.572,2.572,0,0,1,.1,2.68,2.7,2.7,0,0,1-2.364,1.369H6.555A2.7,2.7,0,0,1,4.191,24.9a2.572,2.572,0,0,1,.1-2.68A5.288,5.288,0,0,1,0,17.074V5.253A5.32,5.32,0,0,1,5.384,0H16.151a5.32,5.32,0,0,1,5.384,5.253v11.82a5.287,5.287,0,0,1-4.289,5.144Zm1.6-10.4V5.253a2.66,2.66,0,0,0-2.692-2.627H5.384A2.66,2.66,0,0,0,2.692,5.253V11.82ZM16.151,3.94A1.33,1.33,0,0,1,17.5,5.253v3.94a1.346,1.346,0,0,1-2.692,0V5.253A1.33,1.33,0,0,1,16.151,3.94ZM5.384,18.387A1.314,1.314,0,1,1,6.73,17.074,1.33,1.33,0,0,1,5.384,18.387Zm10.768,0A1.314,1.314,0,1,1,17.5,17.074,1.33,1.33,0,0,1,16.151,18.387Zm-9.6,5.253h8.428l-.9-1.313H7.45Z" transform="translate(0 4.8)"/><path class="e" d="M4.342,10a1.31,1.31,0,1,0,1.342,1.31A1.326,1.326,0,0,0,4.342,10Zm4.7,0a1.31,1.31,0,1,0,1.342,1.31A1.326,1.326,0,0,0,9.041,10Zm4.7,0a1.31,1.31,0,1,0,1.342,1.31A1.326,1.326,0,0,0,13.739,10Z" transform="translate(1.706 -10)"/></g><path class="f" d="M5.384,19.7H16.151a2.66,2.66,0,0,0,2.692-2.627V14.447H2.692v2.627A2.66,2.66,0,0,0,5.384,19.7Zm11.862,2.518a2.572,2.572,0,0,1,.1,2.68,2.7,2.7,0,0,1-2.364,1.369H6.555A2.7,2.7,0,0,1,4.191,24.9a2.572,2.572,0,0,1,.1-2.68A5.288,5.288,0,0,1,0,17.074V5.253A5.32,5.32,0,0,1,5.384,0H16.151a5.32,5.32,0,0,1,5.384,5.253v11.82a5.287,5.287,0,0,1-4.289,5.144Zm1.6-10.4V5.253a2.66,2.66,0,0,0-2.692-2.627H5.384A2.66,2.66,0,0,0,2.692,5.253V11.82ZM16.151,3.94A1.33,1.33,0,0,1,17.5,5.253v3.94a1.346,1.346,0,0,1-2.692,0V5.253A1.33,1.33,0,0,1,16.151,3.94ZM5.384,18.387A1.314,1.314,0,1,1,6.73,17.074,1.33,1.33,0,0,1,5.384,18.387Zm10.768,0A1.314,1.314,0,1,1,17.5,17.074,1.33,1.33,0,0,1,16.151,18.387Zm-9.6,5.253h8.428l-.9-1.313H7.45Z" transform="translate(0 4.8)"/><path class="g" d="M4.342,10a1.31,1.31,0,1,0,1.342,1.31A1.326,1.326,0,0,0,4.342,10Zm4.7,0a1.31,1.31,0,1,0,1.342,1.31A1.326,1.326,0,0,0,9.041,10Zm4.7,0a1.31,1.31,0,1,0,1.342,1.31A1.326,1.326,0,0,0,13.739,10Z" transform="translate(1.706 -10)"/></g><path class="f" d="M4.746-17.439v3.725H9.318a1.29,1.29,0,0,1,.921.349,1.181,1.181,0,0,1,.37.9,1.12,1.12,0,0,1-.37.825,1.269,1.269,0,0,1-.921.36H4.746v4.932a1.216,1.216,0,0,1-.392.921,1.3,1.3,0,0,1-.921.37,1.324,1.324,0,0,1-.963-.36,1.241,1.241,0,0,1-.37-.931V-18.582a1.25,1.25,0,0,1,.37-.921,1.25,1.25,0,0,1,.921-.37H10.27a1.29,1.29,0,0,1,.921.349,1.181,1.181,0,0,1,.37.9,1.12,1.12,0,0,1-.37.825,1.269,1.269,0,0,1-.921.36Zm14.731.847a1.619,1.619,0,0,1,1.069.36,1.073,1.073,0,0,1,.434.847,1.311,1.311,0,0,1-.339.984,1.117,1.117,0,0,1-.8.328,2.112,2.112,0,0,1-.72-.148q-.063-.021-.286-.085a1.727,1.727,0,0,0-.476-.063,1.881,1.881,0,0,0-1.058.339,2.471,2.471,0,0,0-.836,1.027,3.78,3.78,0,0,0-.328,1.64v5.016a1.269,1.269,0,0,1-.36.921,1.215,1.215,0,0,1-.91.37,1.215,1.215,0,0,1-.91-.37,1.269,1.269,0,0,1-.36-.921V-15.09a1.269,1.269,0,0,1,.36-.921,1.215,1.215,0,0,1,.91-.37,1.215,1.215,0,0,1,.91.37,1.269,1.269,0,0,1,.36.921v.275a3.207,3.207,0,0,1,1.4-1.323A4.3,4.3,0,0,1,19.477-16.593Zm13.715,5.884a6.049,6.049,0,0,1-.762,3.037,5.383,5.383,0,0,1-2.085,2.085,5.855,5.855,0,0,1-2.91.741,5.838,5.838,0,0,1-2.921-.741A5.4,5.4,0,0,1,22.44-7.671a6.049,6.049,0,0,1-.762-3.037,6.049,6.049,0,0,1,.762-3.037,5.48,5.48,0,0,1,2.074-2.1,5.773,5.773,0,0,1,2.921-.751,5.79,5.79,0,0,1,2.91.751,5.458,5.458,0,0,1,2.085,2.1A6.049,6.049,0,0,1,33.193-10.709Zm-2.54,0a3.879,3.879,0,0,0-.434-1.852,3.193,3.193,0,0,0-1.164-1.259,3.054,3.054,0,0,0-1.619-.444,3.054,3.054,0,0,0-1.619.444,3.193,3.193,0,0,0-1.164,1.259,3.879,3.879,0,0,0-.434,1.852,3.817,3.817,0,0,0,.434,1.841,3.21,3.21,0,0,0,1.164,1.249,3.054,3.054,0,0,0,1.619.444,3.054,3.054,0,0,0,1.619-.444,3.21,3.21,0,0,0,1.164-1.249A3.817,3.817,0,0,0,30.653-10.709Zm10.71-5.884a3.277,3.277,0,0,1,2.984,1.281,6.509,6.509,0,0,1,.825,3.545v5.418a1.269,1.269,0,0,1-.36.921,1.215,1.215,0,0,1-.91.37,1.215,1.215,0,0,1-.91-.37,1.269,1.269,0,0,1-.36-.921v-5.418a3.049,3.049,0,0,0-.487-1.831,1.935,1.935,0,0,0-1.672-.667,2.581,2.581,0,0,0-1.926.709,2.444,2.444,0,0,0-.7,1.789v5.418a1.269,1.269,0,0,1-.36.921,1.215,1.215,0,0,1-.91.37,1.215,1.215,0,0,1-.91-.37,1.269,1.269,0,0,1-.36-.921V-15.09a1.269,1.269,0,0,1,.36-.921,1.215,1.215,0,0,1,.91-.37,1.215,1.215,0,0,1,.91.37,1.269,1.269,0,0,1,.36.921v.36a5.112,5.112,0,0,1,1.492-1.312A3.867,3.867,0,0,1,41.363-16.593ZM53.385-7.449a.7.7,0,0,1,.54.286,1.119,1.119,0,0,1,.243.751,1.131,1.131,0,0,1-.624.963,2.594,2.594,0,0,1-1.408.392,4.1,4.1,0,0,1-2.212-.561A2.616,2.616,0,0,1,49.025-8v-5.842h-.974a1.149,1.149,0,0,1-.847-.339,1.149,1.149,0,0,1-.339-.847,1.089,1.089,0,0,1,.339-.815,1.168,1.168,0,0,1,.847-.328h.974v-1.355a1.25,1.25,0,0,1,.37-.921,1.25,1.25,0,0,1,.921-.37,1.19,1.19,0,0,1,.889.37,1.269,1.269,0,0,1,.36.921v1.355h1.5a1.149,1.149,0,0,1,.847.339,1.149,1.149,0,0,1,.339.847,1.089,1.089,0,0,1-.339.815,1.168,1.168,0,0,1-.847.328h-1.5v5.736a.81.81,0,0,0,.233.646.939.939,0,0,0,.635.2,1.816,1.816,0,0,0,.466-.085A1.265,1.265,0,0,1,53.385-7.449Zm13.25-3.535a1.087,1.087,0,0,1-.4.825,1.346,1.346,0,0,1-.889.317H58.359a3.192,3.192,0,0,0,1.164,1.958,3.254,3.254,0,0,0,2.053.709,4.55,4.55,0,0,0,1.355-.159,3.528,3.528,0,0,0,.773-.339q.286-.18.392-.243a1.615,1.615,0,0,1,.72-.19,1.039,1.039,0,0,1,.762.317,1.015,1.015,0,0,1,.317.741A1.321,1.321,0,0,1,65.3-6.01a5.057,5.057,0,0,1-1.587.825,6.2,6.2,0,0,1-2.011.339,6.243,6.243,0,0,1-3.1-.741A5.171,5.171,0,0,1,56.56-7.629a5.956,5.956,0,0,1-.72-2.931,6.489,6.489,0,0,1,.762-3.2,5.41,5.41,0,0,1,2.011-2.106,5.2,5.2,0,0,1,2.667-.73,4.944,4.944,0,0,1,2.635.762,5.7,5.7,0,0,1,1.979,2.053A5.519,5.519,0,0,1,66.635-10.984ZM61.28-14.264a2.627,2.627,0,0,0-2.9,2.307h5.545v-.148a2.188,2.188,0,0,0-.868-1.524A2.747,2.747,0,0,0,61.28-14.264ZM74.8-16.593a3.277,3.277,0,0,1,2.984,1.281,6.509,6.509,0,0,1,.825,3.545v5.418a1.269,1.269,0,0,1-.36.921,1.215,1.215,0,0,1-.91.37,1.215,1.215,0,0,1-.91-.37,1.269,1.269,0,0,1-.36-.921v-5.418a3.049,3.049,0,0,0-.487-1.831,1.935,1.935,0,0,0-1.672-.667,2.581,2.581,0,0,0-1.926.709,2.444,2.444,0,0,0-.7,1.789v5.418a1.269,1.269,0,0,1-.36.921,1.215,1.215,0,0,1-.91.37,1.215,1.215,0,0,1-.91-.37,1.269,1.269,0,0,1-.36-.921V-15.09a1.269,1.269,0,0,1,.36-.921,1.215,1.215,0,0,1,.91-.37,1.215,1.215,0,0,1,.91.37,1.269,1.269,0,0,1,.36.921v.36a5.112,5.112,0,0,1,1.492-1.312A3.867,3.867,0,0,1,74.8-16.593ZM90.531-20.72a1.234,1.234,0,0,1,.91.36,1.26,1.26,0,0,1,.36.931v13.08a1.269,1.269,0,0,1-.36.921,1.215,1.215,0,0,1-.91.37,1.2,1.2,0,0,1-.9-.36,1.331,1.331,0,0,1-.37-.91A4.343,4.343,0,0,1,87.832-5.28a4.307,4.307,0,0,1-1.894.434A4.839,4.839,0,0,1,83.292-5.6a5.268,5.268,0,0,1-1.873-2.085,6.506,6.506,0,0,1-.688-3.027,6.655,6.655,0,0,1,.677-3.037,5.2,5.2,0,0,1,1.852-2.1,4.714,4.714,0,0,1,2.593-.751,4.9,4.9,0,0,1,1.9.37,5,5,0,0,1,1.5.942v-4.148a1.269,1.269,0,0,1,.36-.921A1.215,1.215,0,0,1,90.531-20.72ZM86.255-7.174A2.826,2.826,0,0,0,88.5-8.179a3.733,3.733,0,0,0,.868-2.529,3.774,3.774,0,0,0-.868-2.54,2.814,2.814,0,0,0-2.244-1.016,2.791,2.791,0,0,0-2.222,1.016,3.774,3.774,0,0,0-.868,2.54,3.762,3.762,0,0,0,.857,2.529A2.8,2.8,0,0,0,86.255-7.174Zm22.817-.317a1.25,1.25,0,0,1,.921.37,1.177,1.177,0,0,1,.37.857,1.123,1.123,0,0,1-.37.868,1.313,1.313,0,0,1-.921.339h-7.091a1.25,1.25,0,0,1-.921-.37,1.25,1.25,0,0,1-.37-.921V-18.582a1.25,1.25,0,0,1,.37-.921,1.25,1.25,0,0,1,.921-.37h7.091a1.29,1.29,0,0,1,.921.349,1.181,1.181,0,0,1,.37.9,1.106,1.106,0,0,1-.36.857,1.329,1.329,0,0,1-.931.328h-5.736v3.6h4.783a1.29,1.29,0,0,1,.921.349,1.181,1.181,0,0,1,.37.9,1.106,1.106,0,0,1-.36.857,1.329,1.329,0,0,1-.931.328h-4.783v3.916Zm9.567-9.1a3.277,3.277,0,0,1,2.984,1.281,6.509,6.509,0,0,1,.825,3.545v5.418a1.269,1.269,0,0,1-.36.921,1.215,1.215,0,0,1-.91.37,1.215,1.215,0,0,1-.91-.37,1.269,1.269,0,0,1-.36-.921v-5.418a3.049,3.049,0,0,0-.487-1.831,1.935,1.935,0,0,0-1.672-.667,2.581,2.581,0,0,0-1.926.709,2.444,2.444,0,0,0-.7,1.789v5.418a1.269,1.269,0,0,1-.36.921,1.215,1.215,0,0,1-.91.37,1.215,1.215,0,0,1-.91-.37,1.269,1.269,0,0,1-.36-.921V-15.09a1.269,1.269,0,0,1,.36-.921,1.215,1.215,0,0,1,.91-.37,1.215,1.215,0,0,1,.91.37,1.269,1.269,0,0,1,.36.921v.36a5.112,5.112,0,0,1,1.492-1.312A3.867,3.867,0,0,1,118.639-16.593Zm15.938,0a1.233,1.233,0,0,1,.91.36,1.26,1.26,0,0,1,.36.931v9.419a4.53,4.53,0,0,1-1.6,3.82A6.422,6.422,0,0,1,130.2-.824a9.94,9.94,0,0,1-1.746-.212,7.7,7.7,0,0,1-1.577-.423q-1.037-.444-1.037-1.228a1.087,1.087,0,0,1,.063-.339,1.312,1.312,0,0,1,.434-.709A1.051,1.051,0,0,1,127-3.978a1.263,1.263,0,0,1,.4.063q.085.021,1.048.392a4.918,4.918,0,0,0,1.746.37,3.674,3.674,0,0,0,2.339-.624,2.143,2.143,0,0,0,.773-1.767V-6.56A4.218,4.218,0,0,1,131.9-5.375a4.061,4.061,0,0,1-2.021.529,5.035,5.035,0,0,1-2.7-.751,5.263,5.263,0,0,1-1.916-2.085,6.425,6.425,0,0,1-.7-3.027,6.57,6.57,0,0,1,.688-3.037,5.224,5.224,0,0,1,1.884-2.1,4.892,4.892,0,0,1,2.656-.751,4.608,4.608,0,0,1,2.011.444,4.729,4.729,0,0,1,1.5,1.079V-15.3a1.269,1.269,0,0,1,.36-.921A1.215,1.215,0,0,1,134.577-16.593ZM130.2-7.174a2.968,2.968,0,0,0,2.318-1.005,3.652,3.652,0,0,0,.9-2.529,3.691,3.691,0,0,0-.9-2.54,2.954,2.954,0,0,0-2.318-1.016,2.922,2.922,0,0,0-2.307,1.016,3.718,3.718,0,0,0-.889,2.54,3.678,3.678,0,0,0,.889,2.529A2.936,2.936,0,0,0,130.2-7.174Zm10.795.825a1.269,1.269,0,0,1-.36.921,1.215,1.215,0,0,1-.91.37,1.215,1.215,0,0,1-.91-.37,1.269,1.269,0,0,1-.36-.921V-15.09a1.269,1.269,0,0,1,.36-.921,1.215,1.215,0,0,1,.91-.37,1.215,1.215,0,0,1,.91.37,1.269,1.269,0,0,1,.36.921ZM139.7-17.757a1.682,1.682,0,0,1-1.016-.233.994.994,0,0,1-.3-.825v-.4a.959.959,0,0,1,.317-.825,1.741,1.741,0,0,1,1.016-.233,1.728,1.728,0,0,1,1.037.233.994.994,0,0,1,.3.825v.4a.972.972,0,0,1-.307.836A1.848,1.848,0,0,1,139.7-17.757Zm9.948,1.164a3.277,3.277,0,0,1,2.984,1.281,6.509,6.509,0,0,1,.825,3.545v5.418a1.269,1.269,0,0,1-.36.921,1.215,1.215,0,0,1-.91.37,1.215,1.215,0,0,1-.91-.37,1.269,1.269,0,0,1-.36-.921v-5.418a3.049,3.049,0,0,0-.487-1.831,1.935,1.935,0,0,0-1.672-.667,2.581,2.581,0,0,0-1.926.709,2.444,2.444,0,0,0-.7,1.789v5.418a1.269,1.269,0,0,1-.36.921,1.215,1.215,0,0,1-.91.37,1.215,1.215,0,0,1-.91-.37,1.269,1.269,0,0,1-.36-.921V-15.09a1.269,1.269,0,0,1,.36-.921,1.215,1.215,0,0,1,.91-.37,1.215,1.215,0,0,1,.91.37,1.269,1.269,0,0,1,.36.921v.36a5.112,5.112,0,0,1,1.492-1.312A3.867,3.867,0,0,1,149.647-16.593Zm16.721,5.609a1.087,1.087,0,0,1-.4.825,1.346,1.346,0,0,1-.889.317h-6.985a3.192,3.192,0,0,0,1.164,1.958,3.255,3.255,0,0,0,2.053.709,4.55,4.55,0,0,0,1.355-.159,3.528,3.528,0,0,0,.773-.339q.286-.18.392-.243a1.615,1.615,0,0,1,.72-.19,1.039,1.039,0,0,1,.762.317,1.015,1.015,0,0,1,.317.741,1.321,1.321,0,0,1-.593,1.037,5.057,5.057,0,0,1-1.587.825,6.2,6.2,0,0,1-2.011.339,6.243,6.243,0,0,1-3.1-.741,5.171,5.171,0,0,1-2.042-2.043,5.956,5.956,0,0,1-.72-2.931,6.489,6.489,0,0,1,.762-3.2,5.41,5.41,0,0,1,2.011-2.106,5.2,5.2,0,0,1,2.667-.73,4.944,4.944,0,0,1,2.635.762,5.7,5.7,0,0,1,1.979,2.053A5.519,5.519,0,0,1,166.368-10.984Zm-5.355-3.281a2.627,2.627,0,0,0-2.9,2.307h5.545v-.148a2.188,2.188,0,0,0-.868-1.524A2.747,2.747,0,0,0,161.013-14.264Z" transform="translate(56.319 32.72)"/></svg>